<?xml version="1.0" encoding="utf-8"?>
<!-- Generator: Adobe Illustrator 23.0.2, SVG Export Plug-In . SVG Version: 6.00 Build 0)  -->
<svg version="1.1" id="Laag_1" xmlns="http://www.w3.org/2000/svg" xmlns:xlink="http://www.w3.org/1999/xlink" x="0px" y="0px"
	 viewBox="0 0 96.4 96.4" style="enable-background:new 0 0 96.4 96.4;" xml:space="preserve">
<style type="text/css">
	.st0{fill:#261917;}
	.st1{fill:#4E4241;}
	.st2{fill:#443837;}
	.st3{fill:#A6391E;}
	.st4{fill:#E6A37E;}
	.st5{fill:#661E12;}
	.st6{fill:#97301B;}
	.st7{fill:#822A17;}
	.st8{fill:#CDB699;}
	.st9{fill:#CDCDCD;}
	.st10{fill:#79543D;}
	.st11{fill:#D9D9D9;}
</style>
<title>play</title>
<path class="st0" d="M8.2,20.2l0.9-1c0.3,0,0.6-0.1,0.8-0.1c2.9,4.9,3,5,7.1,0.7C27.8,8.4,40.7,4.1,56.1,7c3.6,0.7,6-0.8,7.1-4.3
	l1,0.5c-1,5.6,2.5,7.8,7,9.1l9.9,8.8l1.1,1.2c0.4,1.3,0.9,2.5,1.4,3.7c9.1,15.3,8.9,30.5-0.4,45.5c-1.2,1.8,0,3.1,0.1,4.7l-2.1,3.9
	c-3.1-0.3-6.3,0.6-8.8,2.5c-13.3,8.9-27.4,10.2-42,3.5c-3.8-1.7-4.4-0.2-4.1,3l0.1,1.2l-1.1,0.7l0,0c-0.4-0.6-0.7-1.3-1.1-1.9
	c0.1-2.1,0.3-4.2-0.9-6c-0.1-2-1.3-2.8-3-3.2c-1-1.6-2.3-2.9-3.9-3.8l-1.2-0.9l-6-10C5,53.6,5,42.1,9.9,30.6
	c0.7-1.2,0.4-2.7-0.7-3.6c0-0.3,0-0.5,0-0.8c-0.1-1.3-0.7-2.1-2.2-2L8.2,20.2z M10.3,36.1C5.5,47.6,9.6,65.2,19,74.7
	c2,2,3.8,2.3,6.1,1.4l1,2c-0.3,2.4,1.1,3.5,3,4.6c5.3,2.8,11.1,4.4,17.1,4.6c15.2,1,26-5.9,34.6-17.5c0.9-1.2,2-2.5,0.1-3.7
	c2.3-7.1,4.7-14.2,4.9-21.7c2.1-2.3,1.8-4.8,0.2-7.2c-0.4-3.3-1.8-6.5-4-9C78.7,22,73.5,18,67.9,13.7c-10.2-7.7-32.4-7.1-42.5,2
	C17.8,20.6,12.2,27,10.3,36.1L10.3,36.1z"/>
<path class="st1" d="M63.1,2.8c-1.1,3.5-3.5,5-7.1,4.3c-15.3-3-28.3,1.4-39,12.7c-4.1,4.4-4.2,4.3-7.1-0.7l1.9-3
	C24.3,3.1,44-4.4,63.1,2.8z"/>
<path class="st1" d="M81,80.1l2.1-3.9c2.2-0.2,2.9-2.2,3.7-3.7c9.7-16.7,9.6-33.5-0.8-49.8c-4.7-7.3-10.9-13.1-19.7-16
	c0.5,3.3,4.9,2.5,4.7,5.7c-4.5-1.4-8-3.5-7-9.1C77.2,7.1,86,16.1,91.8,28c8.7,17.9,4.6,40.5-9.1,53.4L81,80.1z"/>
<path class="st2" d="M81,80.1l1.7,1.3l-1.8,2.4l-4.8,3.3c-0.3-2.1-1.2-1.8-2.7-0.9c-4.7,2.8-9.5,5.3-14.9,6.3
	c-1.7,0.3-3.6,1-3.7,3.3l-1.6,0.1c-3.4-2.8-6.8-2.8-10.2,0L41.4,96c0-1.3-1-2.5-2.3-2.8c-4.3-1.2-8.7-2.6-13-3.9
	c-0.3-3.2,0.3-4.8,4.1-3c14.6,6.6,28.7,5.3,42-3.5C74.8,80.8,77.9,79.9,81,80.1z"/>
<path class="st3" d="M82.1,28.2c2.2,2.5,3.6,5.7,4,9c-1.6,2.4-0.9,4.8-0.2,7.2C85.7,52,83.3,59.1,81,66.2
	c-4.5,6.3-12.1,9.4-16.7,15.7c-5.8-0.8-11,2.3-16.4,2.7c-7.8,0.5-14.8-3-21.7-6.4c-0.3-0.7-0.7-1.3-1-2c0-0.7,0-1.4,0-2
	c0.9-4,3.8-1.8,5.9-1.9c1.8,4.3,4.6,0.8,7,1c0.4,1.2-1.5,2.6-0.1,3.6s2.8,0,4.1-0.6c2.3,0,4.7,0.1,7,0c6.7-0.3,13.7-0.8,18.7-5.4
	c5.5-5.2,12.6-9.7,12.2-19.1c-0.3-5.5,2.6-11,1.3-16.6C83.9,33.1,80.3,30.3,82.1,28.2z"/>
<path class="st4" d="M82.1,28.2c-1.7,2.1,1.8,4.9-0.9,6.8c-0.3-3.1-2.9-5-4.2-7.7c-2.4-5.3-6.7-8.8-12-11c-1.2-1.9-3.3-3.3-5.5-3.6
	C45,11.1,31.4,12.8,21,24.6c-0.8,0.9-1.5,1.8-2.9,1.7c1.2-4.4,6.6-5.8,7.4-10.6c10.1-9,32.2-9.6,42.5-2C73.5,17.9,78.7,22,82.1,28.2
	z"/>
<path class="st2" d="M71.1,12.4c0.2-3.2-4.2-2.4-4.7-5.7c8.8,3,15,8.8,19.7,16.1c10.5,16.3,10.5,33,0.8,49.8
	C86,74,85.4,76,83.2,76.2c-0.1-1.5-1.2-2.8-0.1-4.7c9.4-15,9.6-30.2,0.4-45.5c-0.6-1.2-1.1-2.4-1.4-3.7L81,21.2L71.1,12.4z"/>
<path class="st5" d="M26.1,78.2c6.9,3.4,13.9,6.9,21.7,6.4c5.5-0.3,10.7-3.5,16.4-2.7c4.5-6.3,12.2-9.4,16.7-15.7
	c1.9,1.3,0.8,2.5-0.1,3.7c-8.6,11.5-19.5,18.5-34.6,17.5c-6-0.3-11.8-1.8-17.1-4.6C27.2,81.7,25.8,80.6,26.1,78.2z"/>
<path class="st1" d="M8.3,76.1c-0.2-1.2-0.9-2.3-1.9-3l-1.2-2c-6.9-15.3-7.1-30.5,0.2-45.7L7,24.2c1.5-0.1,2.1,0.7,2.2,2
	c-6.3,7.8-7.7,17-6.6,26.4c1.6,13.5,7.7,24.8,19,32.8c1.9,1.3,0.1,1.8-0.5,2.5h-0.9l-1.1-0.7c-0.6-1.1-1.6-2-2.9-2.2l-4.9-4.9
	c-0.2-1.3-1-2.3-2.2-2.9L8.3,76.1z"/>
<path class="st2" d="M21.1,88c0.5-0.8,2.3-1.2,0.5-2.5c-11.4-8-17.5-19.3-19-32.8C1.5,43.3,2.9,34,9.2,26.2c0,0.3,0,0.5,0,0.8
	c-0.4,1.2-0.8,2.5-1.3,3.7C4,40.8,2.7,51.1,6.4,61.5c0.5,1.4,0.3,3.5,2.7,3.7l6,10l1.1,1c1.6,1,2.9,2.3,3.9,3.8c0,2,1,3,3,3.2
	c1.2,1.9,1,4,0.9,6C22.9,89.2,21.9,88.8,21.1,88z"/>
<path class="st5" d="M25.1,74.2c0,0.7,0,1.4,0,2c-2.3,0.8-4.1,0.6-6.1-1.4c-9.4-9.5-13.5-27.2-8.7-38.6l0.9,0.1c0,1.3,0,2.7,0,4
	c0.1,2.7,0.1,5.4,0.2,8.1c0,5.3-0.2,11.1,4.6,15.1C16.8,69.9,20.2,73.9,25.1,74.2z"/>
<path class="st3" d="M11.2,36.2l-0.9-0.1c1.9-9.1,7.5-15.5,15.1-20.5c-0.7,4.7-6.2,6.2-7.4,10.6l0.1-0.1c-0.6,0.6-1.1,1.2-0.1,1.9
	c-0.1,3.4-3.3,5.7-2.9,9.2c-0.3,0-0.7,0-1,0.1L11.2,36.2z"/>
<path class="st1" d="M9.1,65.2c-2.3-0.2-2.2-2.3-2.7-3.7C2.8,51.1,4,40.9,7.9,30.8c0.5-1.2,0.9-2.5,1.3-3.7c1.1,0.9,1.4,2.4,0.7,3.6
	C5,42.1,5,53.6,9.1,65.2z"/>
<path class="st1" d="M41.1,96.4l-2-0.4c-4.3-1.9-9.4-1.8-12.9-5.5l-0.1-1.2c4.3,1.3,8.7,2.7,13,3.9c1.3,0.3,2.2,1.5,2.3,2.8
	C41.3,96.1,41.2,96.2,41.1,96.4z"/>
<path class="st5" d="M85.8,44.5c-0.7-2.4-1.4-4.8,0.2-7.2C87.6,39.7,88,42.1,85.8,44.5z"/>
<path class="st1" d="M23.2,83.2c-2-0.2-3.1-1.2-3-3.2C21.9,80.5,23.1,81.3,23.2,83.2z"/>
<path class="st1" d="M81,21.2l1.1,1.2L81,21.2z"/>
<path class="st1" d="M16.2,76.2l-1.1-1L16.2,76.2z"/>
<path class="st1" d="M72.9,90.1l-1.8,1l-14,4.9l-2,0.4c-0.1-0.2-0.1-0.3-0.3-0.5c0.1-2.4,2-3,3.7-3.3c5.4-1,10.3-3.5,14.9-6.3
	c1.4-0.9,2.4-1.3,2.7,0.9L72.9,90.1z"/>
<path class="st1" d="M53.2,96.1H43C46.4,93.2,49.8,93.2,53.2,96.1z"/>
<path class="st6" d="M65,16.3c5.3,2.3,9.6,5.8,12,11c1.2,2.7,3.8,4.6,4.2,7.7c1.3,5.7-1.6,11.1-1.3,16.6c0.5,9.4-6.6,13.9-12.2,19.1
	c-5,4.7-12,5.2-18.7,5.4c-2.3,0.1-4.7,0-7,0c0-1.1,0.2-2.3-1-3l27.2-16.1c1.7-1,3.9-1.4,3.8-4l0,0l1-0.9c3.8-3.2,3.8-4.8-0.1-7.5
	c-1.8-1.2-3.8-2.3-5.8-3.5c1.3,0,2.7,0,4,0c5.5,0,5.9-0.9,4-6.2c-1.5-4.2-4.2-7.9-7.7-10.7c-3.3-2.5-3.5-4.7-2.5-8L65,16.3z"/>
<path class="st5" d="M67.1,41.2c2,1.2,4,2.3,5.9,3.6c3.9,2.7,3.8,4.3,0.1,7.5l-1,0.9l0,0c-4.7,2.5-9.4,4.8-13.9,7.5
	c-6.7,4.1-14.1,7.2-20.1,12.5l0,0c-2.3-0.2-5.2,3.4-7-1c-0.5-6,1.1-12.1-0.9-18.1c-0.7-8.3,1.1-16.5,1-24.7c-0.1-7,1.5-7.8,7.7-4.3
	c6.5,3.7,12.9,7.4,19.3,11.1l1,0.1c0.5,1.2,1.7,2.1,3,2c0.4,0.7,1.2,1.1,2,1L67.1,41.2z M34.2,68.2c-1.3,3,0.2,3.2,2.2,2
	c11.6-6.6,23.2-13.3,34.7-20.1c0.6-0.4,2.3-0.6,0.8-2c-1.5-1-2.9-2-4.4-2.9c-10.3-6-20.6-12-30.9-18c-1-0.6-2.8-2.4-2.3,0.9v4
	c-1.6,3.8-1.6,8.2,0,12c0.1,3.7,0.2,7.4,0.3,11.1C34,58.8,34,62.4,34.6,66L34.2,68.2z"/>
<path class="st6" d="M30.2,54.2c2,5.9,0.4,12,0.9,18.1c-2.2,0.1-5.1-2.1-5.9,1.9c-4.9-0.3-8.3-4.3-9.2-10.7c1.4-1.5,2.8-2.8,1.2-5.1
	c-3.4-4.9-3.4-10.5-3.1-16.2c3.4-1.9,4.4-0.4,5.2,2.9C21.3,53.3,23.8,55.2,30.2,54.2z"/>
<path class="st7" d="M41.1,73.2c1.2,0.7,1,1.9,1,3c-1.3,0.7-2.7,1.6-4.1,0.6s0.5-2.4,0.1-3.6l0,0L41.1,73.2z"/>
<path class="st6" d="M15.1,37.2C14.8,33.7,18,31.4,18,28c0-0.6,0.1-1.3,0.1-1.9v0.1c1.3,0.1,2.1-0.9,2.9-1.7
	C31.4,12.7,45,11,59.5,12.7c2.3,0.4,4.3,1.7,5.5,3.6l-0.1,0.1c-8.3-0.4-16.6-1.4-25-0.2c-10.5,1.5-20.8,11.5-20.8,20.6
	c0,1,0,2.3-1.1,2.6C16.3,40,16.3,37.7,15.1,37.2z"/>
<path class="st3" d="M14.1,42.2c-0.3,5.6-0.3,11.3,3.1,16.2c1.6,2.3,0.2,3.6-1.2,5.1c-4.9-4-4.6-9.8-4.6-15.1c0-2.7,0-5.4-0.2-8.1
	h2.1C13.1,41,13.4,41.8,14.1,42.2z"/>
<path class="st6" d="M13.3,40.2h-2.1c0-1.3,0-2.7,0-4l3,1.1C14.1,38.4,14.3,39.5,13.3,40.2z"/>
<path class="st7" d="M13.3,40.2c1-0.8,0.8-1.9,0.9-2.9c0.3-0.1,0.7-0.1,1-0.1c1.2,0.5,1.1,2.8,2.9,2.2c1-0.3,1.1-1.6,1.1-2.6
	c0-9.1,10.3-19.1,20.8-20.6c8.4-1.2,16.7-0.2,25,0.2c-1,3.2-0.8,5.5,2.5,8c3.5,2.7,6.2,6.4,7.7,10.6c1.9,5.3,1.5,6.2-4,6.2
	c-1.3,0-2.7,0-4,0l-3-2c-0.4-0.7-1.2-1.1-2-1c-1.3,0.1-2.5-0.8-3-2c-0.3-0.5-0.6-0.6-1-0.1c-6.4-3.7-12.9-7.4-19.3-11.1
	c-6.2-3.5-7.8-2.6-7.7,4.3c0.1,8.3-1.7,16.4-1,24.7c-6.4,1-8.9-0.8-10.8-9c-0.8-3.4-1.9-4.8-5.2-2.9C13.4,41.8,13.1,41,13.3,40.2z"
	/>
<path class="st4" d="M18.1,26.2c0,0.6,0,1.3-0.1,1.9C17.1,27.4,17.6,26.8,18.1,26.2z"/>
<path class="st3" d="M41.1,73.2h-3c6-5.3,13.4-8.4,20.1-12.5c4.5-2.8,9.3-5,13.9-7.5c0.1,2.6-2.2,3-3.8,4L41.1,73.2z"/>
<path class="st3" d="M72.1,53.2l1-0.9L72.1,53.2z"/>
<path class="st8" d="M34.2,32.2c0-1.3,0-2.7,0-4c5.6,4.8,12.5,7.3,18.6,11.2c4.9,3.2,10.8,4.9,14.3,9.9c-4.4,4-9.8,6.4-15,9.2
	c0.1-2.5-1.2-3.4-3.6-3.3c-4.7,0.2-9.4,0.1-14.1,0.2c-0.1-3.7-0.2-7.4-0.3-11.1C35.6,40.4,35.6,36.1,34.2,32.2z"/>
<path class="st9" d="M34.5,55.4c4.7,0,9.4,0,14.1-0.2c2.5-0.1,3.7,0.8,3.6,3.3c-5,2.6-9.4,6.2-14.9,7.8l-2.7-0.2
	C33.9,62.5,33.9,58.9,34.5,55.4z"/>
<path class="st10" d="M37.3,66.3c5.5-1.6,10-5.2,14.9-7.8c5.2-2.8,10.6-5.2,15-9.2l4.8-1.1c1.5,1.3-0.2,1.6-0.8,2
	c-11.6,6.7-23.1,13.4-34.7,20c-2.1,1.2-3.6,0.9-2.2-2C35.5,68.3,36.7,67.5,37.3,66.3z"/>
<path class="st11" d="M72,48.2l-4.8,1.1c-3.6-5-9.5-6.8-14.3-9.9c-6.1-3.9-13-6.4-18.6-11.2c-0.5-3.4,1.3-1.5,2.3-0.9
	c10.3,6,20.7,12,31,18.1C69.1,46.2,70.5,47.2,72,48.2z"/>
<path class="st10" d="M34.2,32.2c1.4,3.9,1.4,8.1,0,12C32.6,40.4,32.6,36.1,34.2,32.2z"/>
<path class="st8" d="M37.3,66.3c-0.5,1.2-1.7,2-3.1,1.9c0.1-0.7,0.2-1.4,0.3-2.1L37.3,66.3z"/>
<path class="st6" d="M62.1,38.2c0.8-0.1,1.6,0.3,2,1C63.3,39.3,62.5,38.9,62.1,38.2z"/>
<path class="st6" d="M58.1,36.2c0.4-0.6,0.7-0.5,1,0.1L58.1,36.2z"/>
</svg>
