<svg id="Laag_1" data-name="Laag 1" xmlns="http://www.w3.org/2000/svg" viewBox="0 0 96.35 96.02"><defs><style>.cls-1{fill:#4e4241;}.cls-2{fill:#37221d;}.cls-3{fill:#443736;}.cls-4{fill:#241b19;}.cls-5{fill:#bdbdbd;}.cls-6{fill:#752716;}.cls-7{fill:#85533f;}.cls-8{fill:#531a10;}.cls-9{fill:#621f12;}.cls-10{fill:#8f745e;}.cls-11{fill:#a08671;}</style></defs><title>play_hover</title><path class="cls-1" d="M940.18,496.05c7.74-2.53,15.51-4.85,23.83-4.12,4.15.36,8.25.81,12.07,2.6-1.08,3.25-3.33,5-6.72,4.36-16.9-3.12-30.73,1.93-41.46,15.35-1.21,1.51-2,2.06-3.31.09a12.79,12.79,0,0,0-2.54-2.3,3,3,0,0,1,.05-.94c1.58-1.47,3.24-2.89,4.07-5l1-.95c2.13-.76,3.55-2.43,5.09-3.95a15.77,15.77,0,0,0,5.12-3.5s.13-.26.12-.26a.41.41,0,0,0,.56-.37A2.55,2.55,0,0,0,940.18,496.05Z" transform="translate(-912.93 -491.79)"/><path class="cls-1" d="M928.08,575.87l-3-3A7.07,7.07,0,0,0,922,569l-.8-1.1a4.46,4.46,0,0,0-1.88-3l-2.2-4a53.55,53.55,0,0,1,.12-41.81l.92-1.87,1.66-1.3a1.91,1.91,0,0,1,2.19,2c-5.81,5.87-6.69,13.71-6.79,21.06-.22,15.18,6.12,27.81,18,37.46,1.19,1,3.49,1.4.81,3.23l-.9,0L932,579A7.42,7.42,0,0,0,928.08,575.87Z" transform="translate(-912.93 -491.79)"/><path class="cls-2" d="M919.82,516a7.84,7.84,0,0,1,2.23-3.93,12.79,12.79,0,0,1,2.54,2.3c1.28,2,2.1,1.42,3.31-.09,10.73-13.42,24.56-18.47,41.46-15.35,3.39.63,5.64-1.11,6.72-4.36l.9.52c-1,5.57,2.42,7.8,7,9.08,2.94,3,6.74,5.16,9,8.88a1.92,1.92,0,0,0-.94,2c-.32.06-.64.1-1,.13-3.24-3.66-5.78-7.79-10.39-10.34a40.79,40.79,0,0,0-26-4.46c-6.84,1-13.57,3.3-16.67,10.68h0a.93.93,0,0,0-1,1h0a.93.93,0,0,0-1,1h0a.94.94,0,0,0-1,1h0a1,1,0,0,0-1,1h0l-1,1h0l-1,1,0,0-1.08,1.26a25.79,25.79,0,0,0-7.14,18.82c-2.75,0-2.29-2.91-3.77-4.06-.31-3.28,1.36-6.1,2.18-9.11.47-1.71,1.69-3.38-.15-5a8.81,8.81,0,0,0,0-.89A1.91,1.91,0,0,0,919.82,516Z" transform="translate(-912.93 -491.79)"/><path class="cls-1" d="M984,504.13c-4.59-1.28-8-3.51-7-9.08,13.14,3.9,21.95,12.84,27.75,24.77,8.65,17.8,4.59,40.55-9.07,53.39L994,572q1-2,2.08-3.94c2.05-.14,2.67-2,3.45-3.28,9.88-16.8,10-33.67-.55-50.16-4.65-7.29-10.93-13-19.65-16.11C979.7,501.8,984.11,501,984,504.13Z" transform="translate(-912.93 -491.79)"/><path class="cls-3" d="M994,572l1.68,1.24-1.74,2.49-1.66,1.37a3.41,3.41,0,0,0-2.34,1.89,5.39,5.39,0,0,1-.9.1c-.24-2-1.07-2-2.62-1a46.29,46.29,0,0,1-15.35,6.48c-1.6.32-3.29.87-3.1,3.12l-1.84.16q-5.1-4.21-10.21,0l-1.85-.16c0-1.25-.34-2.26-1.74-2.67-4.43-1.29-8.85-2.64-13.28-4-.46-4.15,1.09-4.4,4.56-2.81,12,5.5,24.1,5.33,36-.52,3.55-1.75,6.93-3.85,10.39-5.79Z" transform="translate(-912.93 -491.79)"/><path class="cls-3" d="M922,518a8.81,8.81,0,0,1,0,.89c-.81,2.3-1.94,4.55-2.35,6.92-.47,2.7-3,5.33-.62,8.25l0,1.93c-2.11.24-2.11,1.83-2,3.33.47,5.39.87,10.8,2.89,15.93A2.32,2.32,0,0,0,922,557l6,10,1.11,1,4.95,4.79a1.88,1.88,0,0,0,2,2.26c1.17,1.88,1,4,.91,6a4.08,4.08,0,0,1-3-1.31c2.68-1.83.38-2.27-.81-3.23-11.87-9.65-18.21-22.28-18-37.46C915.32,531.71,916.2,523.87,922,518Z" transform="translate(-912.93 -491.79)"/><path class="cls-1" d="M968,587.65c-.19-2.25,1.5-2.8,3.1-3.12a46.29,46.29,0,0,0,15.35-6.48c1.55-1,2.38-1,2.62,1,0,.24-.09.49-.14.73a4.8,4.8,0,0,0-3.11,2.07l-3.82,2C977.29,585.18,972.86,587.31,968,587.65Z" transform="translate(-912.93 -491.79)"/><path class="cls-1" d="M939,581c4.43,1.33,8.85,2.68,13.28,4,1.4.41,1.71,1.42,1.74,2.67-4.92-.31-9.33-2.56-14-3.7-.15-.28-.32-.57-.49-.85.3-.5.13-.79-.41-.91Z" transform="translate(-912.93 -491.79)"/><path class="cls-1" d="M955.9,587.81q5.1-4.23,10.21,0Z" transform="translate(-912.93 -491.79)"/><path class="cls-4" d="M939,581l.09,1.18a1.53,1.53,0,0,0,0,.85l-1-.08-1.1-1.9c.08-2.06.26-4.14-.91-6a2.18,2.18,0,0,0-2-2.26L929.11,568,928,567l-6-10a49.79,49.79,0,0,1-3-21c0-.64,0-1.28,0-1.93L920,533c1.48,1.15,1,4.09,3.77,4.06.1,6.48.08,13,3.3,18.92,1.55,3,1.8,6.94,5.95,8,2.64,2,5.73,3.61,7,7,0,2.62,2.16,3.13,3.88,4,4.53,2.18,9.37,2.91,14.36,3.42,8.12.83,15.71-1,22.89-4.24,8.61-3.9,13.71-11.42,17-19.85,3.59-9.25,4.55-18.86-.2-28.24-.43-4.51-2.91-7.92-5.91-11a1.92,1.92,0,0,1,.94-2l.44,0h.43q.12.47.21.93c7.75,10.58,10.56,22.18,8.06,35.22-1.2,6.23-5,11.14-7.13,16.83-2.11,1.58-4.42,3-5,5.88-3.45,1.94-6.83,4-10.38,5.79-11.89,5.85-24,6-36,.52C940.12,576.61,938.57,576.86,939,581Z" transform="translate(-912.93 -491.79)"/><path class="cls-5" d="M939.09,583a1.53,1.53,0,0,1,0-.85c.54.12.71.41.41.91Z" transform="translate(-912.93 -491.79)"/><path class="cls-6" d="M927.07,556c-3.22-5.94-3.2-12.44-3.3-18.92a25.79,25.79,0,0,1,7.14-18.82L932,517l0,0,1-1h0l1-1h0l1-1h0c.33-.34.66-.67,1-1h0c.33-.34.66-.67,1-1h0c.33-.34.66-.67,1-1h0a95.2,95.2,0,0,1,25.81-7.87l1,.16c1.12,2.66,3.36,1.49,5.25,1.54L972,505l1.06.84,0,.13c-1.64,3.69-5.15,2.36-7.3,1.76-7-1.94-13.18-.22-19.27,2.63-5.42,2.54-9.12,7-12.11,12.07-1.75,3-2,5.91.09,8.89.22.32-.21,1.19-.48,1.73-2,4-.45,7.27,2,10.41,2.64,3.34,4.69-.49,7-.5,2,5.15.47,10.52,1,15.75.23,2.35-1.19,5.34,1.58,6.82,2.57,1.37,4.8-.68,6.87-1.88C963,557.52,973.5,551.21,984,545c6.12-3.61,6.15-3.62,2-9,1.42-1.71,4.13-3.14,3.54-5.52-1.51-6.15-3.06-12.47-8.67-16.54-2-1.46-4.08-2.86-3.9-5.79,6.09,1.29,9.38,6.44,13.79,10.05.16,1.6.54,3.08,2.1,3.93l1,2,.61,2.16c.12-.1.32-.18.36-.3a1.8,1.8,0,0,0-.69-2.09c-.34-.66-.67-1.33-1-2a4,4,0,0,0-2-4l-.09-2.77c.32,0,.64-.07,1-.13,3,3.13,5.48,6.54,5.91,11-.53,3.4.58,6.81.59,10,0,6.78-.86,14.27-4.49,19.95-5.78,9-12.31,18.22-25.09,18.13a3.31,3.31,0,0,0-2.23.87c-2,2.16-4.15,1.53-6.74,1.46-7.18-.19-13.52-2.84-20-5.42-1.28-3.38-4.37-5-7-7C932.94,556.18,932.94,556.18,927.07,556Z" transform="translate(-912.93 -491.79)"/><path class="cls-3" d="M993.84,513h-.43l-.44,0c-2.24-3.72-6-5.87-9-8.88.12-3.17-4.29-2.33-4.68-5.65,8.72,3.08,15,8.82,19.65,16.11,10.54,16.49,10.43,33.36.55,50.16-.78,1.31-1.4,3.14-3.45,3.28a2.24,2.24,0,0,0-1.08-2c2.18-5.69,5.93-10.6,7.13-16.83,2.5-13-.31-24.64-8.06-35.22C994.81,513.46,994.5,513.21,993.84,513Z" transform="translate(-912.93 -491.79)"/><path class="cls-7" d="M990.76,518.2c-4.41-3.61-7.7-8.76-13.79-10.05l-2-2.22c-3-3.65-6.57-5.4-11.18-2.83A95.2,95.2,0,0,0,938,511c3.1-7.38,9.83-9.72,16.67-10.68a40.79,40.79,0,0,1,26,4.46c4.61,2.55,7.15,6.68,10.39,10.34l.09,2.77Z" transform="translate(-912.93 -491.79)"/><path class="cls-1" d="M920,533l-.94,1.07c-2.42-2.92.15-5.55.62-8.25.41-2.37,1.54-4.62,2.35-6.92,1.84,1.61.62,3.28.15,5C921.36,526.89,919.69,529.71,920,533Z" transform="translate(-912.93 -491.79)"/><path class="cls-7" d="M938,511c-.34.33-.67.66-1,1A.93.93,0,0,1,938,511Z" transform="translate(-912.93 -491.79)"/><path class="cls-7" d="M937,512c-.34.33-.67.66-1,1A.93.93,0,0,1,937,512Z" transform="translate(-912.93 -491.79)"/><path class="cls-7" d="M936,513c-.34.33-.67.66-1,1A.94.94,0,0,1,936,513Z" transform="translate(-912.93 -491.79)"/><path class="cls-7" d="M935,514l-1,1A1,1,0,0,1,935,514Z" transform="translate(-912.93 -491.79)"/><path class="cls-7" d="M934,515l-1,1Z" transform="translate(-912.93 -491.79)"/><path class="cls-7" d="M933,516l-1,1Z" transform="translate(-912.93 -491.79)"/><path class="cls-7" d="M932,517l-1.08,1.26Z" transform="translate(-912.93 -491.79)"/><path class="cls-2" d="M995,566a2.24,2.24,0,0,1,1.08,2q-1,2-2.08,3.94l-4-.08C990.56,569,992.87,567.59,995,566Z" transform="translate(-912.93 -491.79)"/><path class="cls-1" d="M919,536a49.79,49.79,0,0,0,3,21,2.32,2.32,0,0,1-2.09-1.75c-2-5.13-2.42-10.54-2.89-15.93C916.9,537.82,916.9,536.23,919,536Z" transform="translate(-912.93 -491.79)"/><path class="cls-1" d="M934.06,572.78a2.18,2.18,0,0,1,2,2.26A1.88,1.88,0,0,1,934.06,572.78Z" transform="translate(-912.93 -491.79)"/><path class="cls-1" d="M928,567l1.11,1Z" transform="translate(-912.93 -491.79)"/><path class="cls-8" d="M940,571c6.43,2.58,12.77,5.23,20,5.42,2.59.07,4.77.7,6.74-1.46a3.31,3.31,0,0,1,2.23-.87c12.78.09,19.31-9.1,25.09-18.13,3.63-5.68,4.5-13.17,4.49-19.95,0-3.15-1.12-6.56-.59-10,4.75,9.38,3.79,19,.2,28.24-3.27,8.43-8.37,16-17,19.85-7.18,3.25-14.77,5.07-22.89,4.24-5-.51-9.83-1.24-14.36-3.42C942.19,574.09,940,573.58,940,571Z" transform="translate(-912.93 -491.79)"/><path class="cls-9" d="M927.07,556c5.87.21,5.87.21,5.95,8C928.87,562.91,928.62,559,927.07,556Z" transform="translate(-912.93 -491.79)"/><path class="cls-1" d="M993.84,513c.66.18,1,.43.21.93Q994,513.49,993.84,513Z" transform="translate(-912.93 -491.79)"/><path class="cls-9" d="M975,505.93l2,2.22c-.18,2.93,1.89,4.33,3.9,5.79,5.61,4.07,7.16,10.39,8.67,16.54.59,2.38-2.12,3.81-3.54,5.52-2.35-1.14-4.76-2.15-7-3.44-9.59-5.53-19.12-11.18-28.71-16.7-3.68-2.12-6.07-.76-6.26,3.42-.08,1.82.1,3.66,0,5.47-.44,6.07,1.09,12.25-1,18.23-2.36,0-4.41,3.84-7,.5-2.49-3.14-4.08-6.4-2-10.41.27-.54.7-1.41.48-1.73-2.07-3-1.84-5.92-.09-8.89,3-5.07,6.69-9.53,12.11-12.07,6.09-2.85,12.32-4.57,19.27-2.63,2.15.6,5.66,1.93,7.3-1.76Z" transform="translate(-912.93 -491.79)"/><path class="cls-8" d="M943,543c2.05-6,.52-12.16,1-18.23.13-1.81-.05-3.65,0-5.47.19-4.18,2.58-5.54,6.26-3.42,9.59,5.52,19.12,11.17,28.71,16.7,2.26,1.29,4.67,2.3,7,3.44,4.17,5.37,4.14,5.38-2,9-10.52,6.22-21,12.53-31.55,18.68-2.07,1.2-4.3,3.25-6.87,1.88-2.77-1.48-1.35-4.47-1.58-6.82C943.49,553.5,945,548.13,943,543Zm4-5,.18,8,0,11.92-.17,2.07c-.24,4,2,2,3.29,1.22q16.81-9.54,33.55-19.24c.66-.38,2.22-.54,1.07-2-11.37-8-23.88-14-35.7-21.22-3-1.85-2.35.5-2,2.17l-.24,2.1A24.78,24.78,0,0,0,947,538Z" transform="translate(-912.93 -491.79)"/><path class="cls-10" d="M975,505.93l-2,.06,0-.13L972,505l-1.94-.22a5.59,5.59,0,0,0-5.25-1.54l-1-.16C968.39,500.53,971.92,502.28,975,505.93Z" transform="translate(-912.93 -491.79)"/><path class="cls-7" d="M964.8,503.26a5.59,5.59,0,0,1,5.25,1.54C968.16,504.75,965.92,505.92,964.8,503.26Z" transform="translate(-912.93 -491.79)"/><path class="cls-7" d="M991.16,517.86a4,4,0,0,1,2,4l-.3.26c-1.56-.85-1.94-2.33-2.1-3.93Z" transform="translate(-912.93 -491.79)"/><path class="cls-7" d="M994.16,523.85a1.82,1.82,0,0,1,.69,2.1c0,.12-.24.2-.36.3-.21-.72-.41-1.44-.61-2.16Z" transform="translate(-912.93 -491.79)"/><path class="cls-7" d="M993.16,521.87c.33.66.66,1.33,1,2l-.28.23-1-2Z" transform="translate(-912.93 -491.79)"/><path class="cls-7" d="M972,505l1.06.84Z" transform="translate(-912.93 -491.79)"/><path class="cls-11" d="M947.24,521c-.33-1.67-1-4,2-2.17C961.08,526,973.59,532,985,540c-4.72.74-8.33,3.77-12.34,6-7.43,4.14-14.24,9.45-22.47,12.11l-2.93-.16,0-11.92c3.28-2.36,2-5.2.85-8l.06-3c5.14,0,10.28,0,15.43-.06,1.35,0,2.82-.16,3.05-1.86.2-1.43-1.15-1.82-2.14-2.38Z" transform="translate(-912.93 -491.79)"/><path class="cls-10" d="M947.24,521l17.2,9.8c1,.56,2.34,1,2.14,2.38-.23,1.7-1.7,1.85-3.05,1.86-5.15,0-10.29,0-15.43.06-.76-4,1-8.16-1.1-12Z" transform="translate(-912.93 -491.79)"/><path class="cls-1" d="M950.15,558.11c8.23-2.66,15-8,22.47-12.11,4-2.23,7.62-5.26,12.34-6,1.15,1.46-.41,1.62-1.07,2q-16.74,9.68-33.55,19.24c-1.33.76-3.53,2.73-3.29-1.22A3.37,3.37,0,0,0,950.15,558.11Z" transform="translate(-912.93 -491.79)"/><path class="cls-1" d="M947,523.05c2.09,3.84.34,8,1.1,12l-.06,3-1,0A24.78,24.78,0,0,1,947,523.05Z" transform="translate(-912.93 -491.79)"/><path class="cls-10" d="M947,538l1,0c1.14,2.83,2.43,5.67-.85,8Z" transform="translate(-912.93 -491.79)"/><path class="cls-10" d="M950.15,558.11a3.37,3.37,0,0,1-3.1,1.91c.05-.69.11-1.38.17-2.07Z" transform="translate(-912.93 -491.79)"/></svg>